<?xml version="1.0" standalone="no"?>
<!DOCTYPE svg PUBLIC "-//W3C//DTD SVG 20010904//EN"
 "http://www.w3.org/TR/2001/REC-SVG-20010904/DTD/svg10.dtd">
<svg version="1.0" xmlns="http://www.w3.org/2000/svg"
 width="256.000000pt" height="256.000000pt" viewBox="0 0 256.000000 256.000000"
 preserveAspectRatio="xMidYMid meet">

<g transform="translate(0.000000,256.000000) scale(0.100000,-0.100000)"
fill="#000000" stroke="none">
<path d="M651 2531 c-6 -11 -11 -54 -11 -95 l0 -76 -203 0 c-222 0 -271 -8
-332 -54 -19 -15 -47 -48 -62 -74 -27 -45 -28 -54 -31 -200 -3 -109 0 -157 8
-167 19 -22 2501 -22 2520 0 8 10 11 58 8 167 -3 146 -4 155 -31 200 -60 103
-126 128 -342 128 -137 0 -154 -2 -169 -19 -14 -15 -15 -24 -6 -40 10 -20 19
-21 164 -21 165 0 204 -8 250 -49 45 -41 56 -79 56 -196 l0 -105 -1190 0
-1190 0 0 105 c0 117 11 155 56 196 48 43 83 49 295 49 l199 0 0 -98 c0 -109
10 -136 51 -130 l24 3 0 245 0 245 -27 3 c-18 2 -30 -3 -37 -17z"/>
<path d="M1847 2544 c-4 -4 -7 -47 -7 -96 l0 -88 -504 0 c-445 0 -506 -2 -520
-16 -20 -19 -20 -38 -3 -53 10 -7 166 -12 518 -13 l504 -3 5 -110 5 -110 30 0
30 0 0 245 0 245 -25 3 c-14 2 -29 0 -33 -4z"/>
<path d="M14 1707 c-2 -7 -3 -355 -2 -773 l3 -761 30 -49 c21 -33 48 -60 85
-81 l54 -33 1096 0 1096 0 54 33 c37 21 64 48 85 81 l30 49 0 771 0 771 -32 3
c-18 2 -34 2 -35 0 -2 -2 -5 -346 -8 -765 -5 -749 -5 -762 -26 -789 -29 -40
-65 -64 -110 -74 -51 -12 -2057 -12 -2108 0 -45 10 -81 34 -110 74 -21 27 -21
40 -26 789 -3 419 -6 763 -8 765 -8 8 -64 0 -68 -11z"/>
<path d="M327 1613 c-4 -3 -7 -131 -7 -283 0 -201 3 -279 12 -288 17 -17 499
-17 516 0 17 17 17 549 0 566 -13 13 -509 18 -521 5z m453 -288 l0 -215 -190
0 -190 0 0 215 0 215 190 0 190 0 0 -215z"/>
<path d="M1022 1608 c-17 -17 -17 -549 0 -566 17 -17 499 -17 516 0 17 17 17
549 0 566 -17 17 -499 17 -516 0z m448 -283 l0 -215 -190 0 -190 0 0 215 0
215 190 0 190 0 0 -215z"/>
<path d="M1712 1608 c-17 -17 -17 -549 0 -566 19 -19 501 -17 517 2 8 9 11 95
9 292 l-3 279 -255 3 c-191 2 -259 -1 -268 -10z m448 -283 l0 -215 -190 0
-190 0 0 215 0 215 190 0 190 0 0 -215z"/>
<path d="M327 893 c-4 -3 -7 -131 -7 -283 0 -201 3 -279 12 -288 16 -16 480
-17 509 -2 18 10 19 24 19 280 0 147 -3 275 -6 284 -5 14 -38 16 -263 16 -142
0 -261 -3 -264 -7z m451 -285 l2 -218 -190 0 -190 0 0 220 0 220 188 -2 187
-3 3 -217z"/>
<path d="M1017 893 c-4 -3 -7 -131 -7 -283 0 -201 3 -279 12 -288 19 -19 501
-17 517 2 8 9 11 95 9 292 l-3 279 -261 3 c-143 1 -263 -1 -267 -5z m453 -283
l0 -220 -190 0 -190 0 0 220 0 220 190 0 190 0 0 -220z"/>
<path d="M1706 884 c-3 -8 -6 -137 -6 -284 0 -256 1 -270 19 -280 12 -6 113
-10 259 -10 191 0 242 3 251 14 8 9 11 95 9 292 l-3 279 -261 3 c-232 2 -262
1 -268 -14z m454 -274 l0 -220 -190 0 -190 0 0 213 c0 118 3 217 7 220 3 4 89
7 190 7 l183 0 0 -220z"/>
</g>
</svg>
