<?xml version="1.0" standalone="no"?>
<!DOCTYPE svg PUBLIC "-//W3C//DTD SVG 20010904//EN"
 "http://www.w3.org/TR/2001/REC-SVG-20010904/DTD/svg10.dtd">
<svg version="1.0" xmlns="http://www.w3.org/2000/svg"
 width="256.000000pt" height="256.000000pt" viewBox="0 0 256.000000 256.000000"
 preserveAspectRatio="xMidYMid meet">

<g transform="translate(0.000000,256.000000) scale(0.100000,-0.100000)"
fill="#000000" stroke="none">
<path d="M420 2531 c-5 -11 -10 -47 -10 -80 l0 -61 -107 0 c-117 0 -168 -15
-210 -61 -55 -60 -53 -12 -53 -1126 0 -676 4 -1041 10 -1065 6 -21 22 -51 37
-68 53 -63 2 -60 914 -60 l831 0 40 22 c22 13 51 41 64 64 l24 41 0 374 0 373
-70 -69 -70 -69 0 -286 c0 -209 -3 -289 -12 -298 -9 -9 -123 -12 -450 -12
-422 0 -441 -1 -513 -22 l-75 -22 -52 22 c-50 20 -70 22 -279 22 -162 0 -228
3 -237 12 -15 15 -17 2044 -2 2068 7 11 34 16 110 18 l100 4 0 -50 c0 -35 5
-54 18 -65 42 -38 82 -5 82 66 l0 47 135 0 135 0 0 -48 c0 -35 5 -54 18 -65
42 -38 82 -5 82 67 l0 47 118 -3 117 -3 3 -53 c3 -44 7 -55 26 -63 41 -19 64
3 68 64 l3 52 128 3 127 3 0 -43 c0 -49 22 -88 50 -88 33 0 50 28 50 81 l0 49
103 0 c153 0 147 9 147 -208 l0 -176 70 69 70 69 0 125 c0 114 -2 128 -25 167
-14 23 -42 53 -62 66 -34 20 -52 23 -170 26 l-133 4 0 67 c0 72 -10 91 -46 91
-40 0 -54 -26 -54 -96 l0 -64 -130 0 -130 0 0 68 c0 72 -10 92 -45 92 -35 0
-45 -20 -45 -92 l0 -68 -120 0 -120 0 0 61 c0 76 -12 99 -50 99 -38 0 -50 -23
-50 -99 l0 -61 -135 0 -135 0 0 61 c0 76 -12 99 -50 99 -19 0 -33 -7 -40 -19z"/>
<path d="M2125 1986 c-16 -8 -64 -48 -105 -90 l-75 -76 200 -200 200 -200 58
58 c89 86 117 128 117 175 0 38 -7 47 -137 180 -171 172 -190 183 -258 153z"/>
<path d="M488 1809 c-21 -12 -24 -49 -6 -67 17 -17 979 -17 996 0 18 18 14 56
-7 68 -27 14 -959 13 -983 -1z"/>
<path d="M1535 1410 l-340 -340 -351 0 c-382 0 -384 0 -370 -55 l6 -25 310 0
c171 0 310 -3 310 -7 0 -4 -40 -48 -90 -98 l-90 -90 -85 -268 c-68 -213 -84
-271 -74 -283 6 -8 17 -14 24 -14 7 0 131 38 276 84 l262 84 474 474 c260 260
473 477 473 483 0 10 -380 395 -390 395 -3 0 -158 -153 -345 -340z m333 166
c6 -27 -745 -778 -773 -774 -55 8 -30 38 351 420 382 381 412 407 422 354z
m-778 -1011 c67 -68 110 -118 105 -123 -6 -4 -50 -21 -99 -36 l-88 -28 -53 52
-52 52 30 99 c17 54 33 99 36 99 4 0 58 -52 121 -115z"/>
<path d="M482 1448 c-7 -7 -12 -19 -12 -28 0 -39 8 -40 511 -40 529 0 519 -1
505 55 l-6 25 -493 0 c-370 0 -496 -3 -505 -12z"/>
</g>
</svg>
