<?xml version="1.0" standalone="no"?>
<!DOCTYPE svg PUBLIC "-//W3C//DTD SVG 20010904//EN"
 "http://www.w3.org/TR/2001/REC-SVG-20010904/DTD/svg10.dtd">
<svg version="1.0" xmlns="http://www.w3.org/2000/svg"
 width="256.000000pt" height="256.000000pt" viewBox="0 0 256.000000 256.000000"
 preserveAspectRatio="xMidYMid meet">

<g transform="translate(0.000000,256.000000) scale(0.100000,-0.100000)"
fill="#000000" stroke="none">
<path d="M1000 2518 c-71 -43 -112 -107 -114 -179 -1 -39 3 -54 17 -63 27 -17
51 5 59 55 12 71 62 123 134 139 21 5 104 10 184 10 80 0 163 -5 184 -10 72
-16 122 -68 134 -139 8 -50 32 -72 60 -55 13 9 17 24 16 63 -2 72 -43 136
-114 179 l-54 32 -226 0 -226 0 -54 -32z"/>
<path d="M274 2171 c-45 -27 -64 -76 -64 -163 0 -44 5 -79 12 -86 17 -17 2099
-17 2116 0 7 7 12 42 12 86 0 87 -19 136 -64 163 -30 18 -70 19 -1006 19 -936
0 -976 -1 -1006 -19z m1977 -80 c11 -14 19 -39 19 -62 l0 -39 -990 0 -990 0 0
36 c0 44 15 72 43 84 12 5 431 8 960 7 l939 -2 19 -24z"/>
<path d="M432 1812 c-10 -7 -12 -175 -10 -829 l3 -821 30 -43 c17 -24 50 -57
74 -74 l43 -30 708 0 708 0 43 30 c24 17 57 50 74 74 l30 43 3 821 c2 847 3
836 -35 837 -6 0 -19 -7 -27 -16 -14 -14 -16 -101 -16 -807 0 -784 0 -792 -21
-826 -29 -49 -57 -68 -112 -80 -65 -15 -1229 -15 -1294 0 -55 12 -83 31 -112
80 -21 34 -21 42 -21 826 0 706 -2 793 -16 807 -17 18 -32 20 -52 8z"/>
<path d="M910 1791 c-7 -13 -10 -261 -10 -735 0 -636 2 -716 16 -730 19 -19
36 -20 52 -4 17 17 17 1459 0 1476 -18 18 -46 14 -58 -7z"/>
<path d="M1252 1798 c-9 -9 -12 -187 -12 -740 0 -717 0 -727 20 -738 14 -8 26
-8 40 0 20 11 20 21 20 738 0 755 0 752 -40 752 -9 0 -21 -5 -28 -12z"/>
<path d="M1592 1798 c-9 -9 -12 -187 -12 -740 0 -709 0 -728 19 -738 25 -13
27 -13 45 6 14 14 16 94 16 730 0 474 -3 722 -10 735 -12 21 -40 25 -58 7z"/>
</g>
</svg>
